#!OML:ASF I:\Actors\actors\Patient Classification 2\Patient 1\Session 1\actor1.ASF
:FULLY-SPECIFIED
:DEGREES
461
root -0.349482 18.7067 5.69511 2.14372 -0.500674 0.4179
lowerback 6.13506 3.31377 -1.63071
upperback -0.248274 4.3053 0.224517
thorax -3.82868 2.17167 0.737282
lowerneck -15.7067 -6.45492 -5.90045
upperneck 15.9174 -8.50597 5.57933
head 8.00622 -3.87061 1.80992
rclavicle -7.77e-014 1.55052e-014
rhumerus -19.5933 32.9974 -73.5
rradius 68.6994
rwrist -10.3831
rhand 0.0269171 -40.306
rfingers 7.12502
rthumb 25.6162 -68.603
lclavicle -7.77e-014 1.55052e-014
lhumerus -46.1578 -6.49197 87.3105
lradius 47.4082
lwrist 7.07584
lhand -6.92935 -18.3315
lfingers 7.12502
lthumb 18.9388 10.7665
rfemur 0 0 0
rtibia 0
rfoot 0 0
rtoes 0
lfemur -4.89827 -6.08778 -15.7897
ltibia 21.1027
lfoot -22.0982 12.7386
ltoes -54.3277
462
root -0.354303 18.7013 5.7139 1.97508 -0.878142 0.3202
lowerback 5.8582 3.14468 -1.76284
upperback -0.331157 4.07602 0.234068
thorax -3.76255 2.06126 0.85612
lowerneck -15.7978 -6.23539 -5.71433
upperneck 16.2453 -8.20633 5.29749
head 8.09216 -3.73974 1.72069
rclavicle 3.58371e-014 -1.5704e-014
rhumerus -23.2467 33.6574 -75.1722
rradius 69.7992
rwrist -9.38053
rhand -0.210282 -39.4353
rfingers 7.12502
rthumb 25.3889 -67.7648
lclavicle 3.58371e-014 -1.5704e-014
lhumerus -45.4372 -5.88064 86.9091
lradius 46.2683
lwrist 6.48141
lhand -6.81616 -18.526
lfingers 7.12502
lthumb 19.0476 10.5613
rfemur 0 0 0
rtibia 0
rfoot 0 0
rtoes 0
lfemur -4.5215 -6.23124 -15.7469
ltibia 21.047
lfoot -22.4182 13.0936
ltoes -54.2524
463
root -0.35897 18.6953 5.73338 1.77772 -1.33187 0.246288
lowerback 5.56267 3.01156 -1.88088
upperback -0.366637 3.89593 0.218652
thorax -3.63448 1.97399 0.938237
lowerneck -15.8159 -6.01423 -5.55168
upperneck 16.4548 -7.89919 5.03571
head 8.1289 -3.60795 1.6453
rclavicle -1.81391e-015 -8.79622e-015
rhumerus -26.8644 33.8426 -77.0293
rradius 70.5014
rwrist -8.83617
rhand -0.349394 -39.0513
rfingers 7.12502
rthumb 25.2557 -67.3998
lclavicle -1.81391e-015 -8.79622e-015
lhumerus -44.6862 -5.28686 86.4743
lradius 45.0424
lwrist 5.69014
lhand -6.87702 -19.2554
lfingers 7.12502
lthumb 18.9891 9.83768
rfemur 0 0 0
rtibia 0
rfoot 0 0
rtoes 0
lfemur -4.10125 -6.26025 -15.7397
ltibia 20.9975
lfoot -22.742 13.3917
ltoes -54.1296
464
root -0.364542 18.6899 5.7502 1.58799 -1.83239 0.168834
lowerback 5.3161 2.91805 -1.94065
upperback -0.391327 3.77073 0.165406
thorax -3.51757 1.91223 0.940678
lowerneck -15.8654 -5.81807 -5.39099
upperneck 16.6398 -7.6398 4.85889
head 8.17076 -3.49031 1.59147
rclavicle 7.1745e-014 5.10628e-015
rhumerus -30.3832 33.4433 -79.0073
rradius 70.7672
rwrist -8.71623
rhand -0.621464 -39.2473
rfingers 7.12502
rthumb 24.995 -67.6323
lclavicle 7.1745e-014 5.10628e-015
lhumerus -43.9655 -4.81027 86.0543
lradius 43.8224
lwrist 4.63922
lhand -7.32713 -20.3591
lfingers 7.12502
lthumb 18.5562 8.77586
rfemur 0 0 0
rtibia 0
rfoot 0 0
rtoes 0
lfemur -3.6909 -6.12124 -15.7108
ltibia 20.9437
lfoot -22.9794 13.5847
ltoes -53.9515
465
root -0.370862 18.6844 5.76389 1.44412 -2.36601 0.0862649
lowerback 5.05092 2.83439 -2.01972
upperback -0.398068 3.659 0.12836
thorax -3.37435 1.85726 0.970114
lowerneck -16.0413 -5.60023 -5.13616
upperneck 16.872 -7.35549 4.61417
head 8.24398 -3.35906 1.49971
rclavicle -4.87022e-015 -8.59744e-015
rhumerus -33.7082 32.2718 -80.9353
rradius 70.6424
rwrist -8.53157
rhand -0.811371 -39.6117
rfingers 7.12502
rthumb 24.813 -68.0219
lclavicle -4.87022e-015 -8.59744e-015
lhumerus -43.2726 -4.20794 85.6658
lradius 42.8818
lwrist 3.82945
lhand -7.69544 -20.908
lfingers 7.12502
lthumb 18.2019 8.26037
rfemur 0 0 0
rtibia 0
rfoot 0 0
rtoes 0
lfemur -3.31934 -6.17521 -15.6951
ltibia 20.8868
lfoot -23.3096 13.9669
ltoes -53.7999
466
root -0.377387 18.6785 5.77635 1.3839 -2.89913 0.0478758
lowerback 4.70651 2.73901 -2.13909
upperback -0.401307 3.53169 0.0865834
thorax -3.18447 1.79475 1.02171
lowerneck -16.2337 -5.35078 -4.87088
upperneck 17.0624 -7.02917 4.37739
head 8.30562 -3.20692 1.41411
rclavicle -3.20261e-014 -8.94531e-016
rhumerus -36.8768 30.2559 -82.7141
rradius 70.3594
rwrist -7.67624
rhand -0.888179 -40.0049
rfingers 7.12502
rthumb 24.7394 -68.4251
lclavicle -3.20261e-014 -8.94531e-016
lhumerus -42.6782 -3.53026 85.304
lradius 42.2776
lwrist 3.41885
lhand -7.81869 -20.9569
lfingers 7.12502
lthumb 18.0833 8.22248
rfemur 0 0 0
rtibia 0
rfoot 0 0
rtoes 0
lfemur -3.03117 -6.29921 -15.7294
ltibia 20.8037
lfoot -23.6739 14.4221
ltoes -53.6687
467
root -0.383695 18.6742 5.78698 1.40511 -3.35416 0.041059
lowerback 4.33926 2.62527 -2.26334
upperback -0.426018 3.38075 0.0317419
thorax -3.0022 1.72038 1.06364
lowerneck -16.3382 -5.09007 -4.74481
upperneck 17.1012 -6.68987 4.33332
head 8.3142 -3.0412 1.4197
rclavicle 2.3e-014 -7.7526e-015
rhumerus -39.347 29.6352 -84.2891
rradius 69.2182
rwrist -7.90819
rhand -2.07959 -40.5564
rfingers 7.12502
rthumb 23.5971 -69.1285
lclavicle 2.3e-014 -7.7526e-015
lhumerus -42.175 -2.96711 85.0173
lradius 41.8246
lwrist 3.24709
lhand -7.96893 -20.9701
lfingers 7.12502
lthumb 17.9387 8.22263
rfemur 0 0 0
rtibia 0
rfoot 0 0
rtoes 0
lfemur -2.86315 -6.27816 -15.7571
ltibia 20.7097
lfoot -23.9167 14.7006
ltoes -53.5169
468
root -0.412986 18.6668 5.81053 1.14652 -3.22412 -0.0206449
lowerback 4.05444 2.32421 -2.6797
upperback -0.315243 2.96999 0.12089
thorax -2.73894 1.51965 1.43254
lowerneck -16.44 -4.80649 -4.71906
upperneck 17.1184 -6.3137 4.38827
head 8.32076 -2.85481 1.47943
rclavicle 1.35298e-014 1.71949e-014
rhumerus -41.7622 28.2504 -85.6979
rradius 68.1561
rwrist -7.82531
rhand -3.15668 -41.4108
rfingers 7.12502
rthumb 22.5636 -70.1122
lclavicle 1.35298e-014 1.71949e-014
lhumerus -41.7582 -2.37108 84.7978
lradius 41.5128
lwrist 3.04803
lhand -8.08268 -20.988
lfingers 7.12502
lthumb 17.8293 8.21472
rfemur 0 0 0
rtibia 0
rfoot 0 0
rtoes 0
lfemur -2.42266 -6.0275 -15.5329
ltibia 20.6012
lfoot -23.8117 14.2443
ltoes -53.517
469
root -0.427373 18.6631 5.82445 1.03306 -3.43511 -0.0789594
lowerback 3.79279 2.12763 -2.89725
upperback -0.283005 2.70779 0.17563
thorax -2.55958 1.39022 1.63915
lowerneck -16.6706 -4.53869 -4.49486
upperneck 17.3645 -5.93391 4.0602
head 8.4079 -2.68912 1.37613
rclavicle -1.4971e-015 1.43125e-014
rhumerus -44.0686 26.3329 -86.8936
rradius 67.1579
rwrist -7.66132
rhand -4.39053 -42.9602
rfingers 7.12502
rthumb 21.3789 -71.8008
lclavicle -1.4971e-015 1.43125e-014
lhumerus -41.471 -1.8488 84.6901
lradius 41.3609
lwrist 2.93369
lhand -8.1519 -21.1356
lfingers 7.12502
lthumb 17.7627 8.07315
rfemur 0 0 0
rtibia 0
rfoot 0 0
rtoes 0
lfemur -2.12705 -5.94049 -15.4383
ltibia 20.5
lfoot -23.929 14.2578
ltoes -53.4462
470
root -0.432372 18.6609 5.83117 0.984452 -3.77746 -0.0902978
lowerback 3.65419 1.9792 -2.98177
upperback -0.326584 2.50996 0.168123
thorax -2.51986 1.29277 1.69545
lowerneck -16.8755 -4.27663 -4.12352
upperneck 17.6264 -5.55811 3.52845
head 8.48781 -2.53773 1.18048
rclavicle -1.5176e-014 1.21259e-014
rhumerus -46.1589 24.1219 -87.8634
rradius 65.9597
rwrist -7.00924
rhand -6.20816 -44.2201
rfingers 7.12502
rthumb 19.6322 -73.2488
lclavicle -1.5176e-014 1.21259e-014
lhumerus -41.3324 -1.65018 84.7106
lradius 41.2485
lwrist 3.28954
lhand -8.33153 -21.8425
lfingers 7.12502
lthumb 17.5898 7.38179
rfemur 0 0 0
rtibia 0
rfoot 0 0
rtoes 0
lfemur -1.94447 -5.92955 -15.4643
ltibia 20.4538
lfoot -24.1185 14.5109
ltoes -53.4745
471
root -0.437066 18.6585 5.83466 0.91686 -4.07595 -0.189736
lowerback 3.62741 1.82922 -2.94699
upperback -0.387883 2.31146 0.161078
thorax -2.55574 1.19448 1.68084
lowerneck -16.9689 -4.01801 -3.8927
upperneck 17.7437 -5.21712 3.31459
head 8.51735 -2.38212 1.11238
rclavicle 3.8968e-014 1.27222e-014
rhumerus -47.9084 21.5846 -88.429
rradius 64.424
rwrist -5.68806
rhand -7.80387 -44.406
rfingers 7.12502
rthumb 18.0975 -73.5841
lclavicle 3.8968e-014 1.27222e-014
lhumerus -41.2728 -1.68048 84.7699
lradius 41.1562
lwrist 3.84947
lhand -8.57434 -22.9052
lfingers 7.12502
lthumb 17.3561 6.33991
rfemur 0 0 0
rtibia 0
rfoot 0 0
rtoes 0
lfemur -1.82406 -5.92041 -15.3859
ltibia 20.5395
lfoot -24.308 14.6937
ltoes -53.5475
